<?xml version="1.0" encoding="UTF-8"?>
<svg id="Layer_2" data-name="Layer 2" xmlns="http://www.w3.org/2000/svg" viewBox="0 0 536.02 73.68">
  <defs>
    <style>
      .cls-1 {
        fill: #27ca8f;
      }

      .cls-2 {
        fill: #eb2c00;
      }

      .cls-3 {
        fill: #fcf9f2;
      }

      .cls-4 {
        fill: #1868e5;
      }

      .cls-5 {
        fill: #f90;
      }
    </style>
  </defs>
  <g id="Layer_1-2" data-name="Layer 1">
    <g>
      <path class="cls-3" d="M88.1,14.63h11.43v5.47h.74c1.12-1.91,2.85-3.55,5.2-4.92,2.35-1.36,5.26-2.04,8.73-2.04,2.91,0,5.68.6,8.32,1.81,2.63,1.21,4.95,2.88,6.97,5.01,2.01,2.13,3.61,4.68,4.78,7.65,1.18,2.97,1.76,6.21,1.76,9.74s-.59,6.77-1.76,9.74-2.77,5.52-4.78,7.65c-2.01,2.13-4.34,3.8-6.97,5.01-2.63,1.21-5.4,1.81-8.32,1.81-3.47,0-6.38-.68-8.73-2.04-2.36-1.36-4.09-3-5.2-4.92h-.74l.74,6.49v12.58h-12.17V14.63ZM111.7,50.33c1.61,0,3.14-.31,4.6-.92,1.46-.62,2.74-1.49,3.86-2.6,1.12-1.12,2.01-2.47,2.7-4.08.68-1.61,1.02-3.4,1.02-5.38s-.34-3.77-1.02-5.38c-.68-1.61-1.58-2.97-2.7-4.08-1.12-1.12-2.4-1.98-3.86-2.6-1.46-.62-2.99-.92-4.6-.92s-3.15.3-4.6.88c-1.46.59-2.74,1.44-3.86,2.55-1.12,1.12-2.01,2.47-2.7,4.08-.68,1.61-1.02,3.43-1.02,5.47s.34,3.87,1.02,5.47c.68,1.61,1.58,2.97,2.7,4.08,1.11,1.11,2.4,1.96,3.86,2.55,1.46.59,2.99.88,4.6.88v-.02Z"/>
      <path class="cls-3" d="M182.68,49.13c-2.11,3.71-4.94,6.71-8.5,8.99-3.57,2.29-7.91,3.43-13.06,3.43-3.47,0-6.67-.6-9.62-1.81-2.95-1.21-5.5-2.89-7.66-5.05-2.17-2.16-3.86-4.72-5.06-7.65-1.21-2.93-1.81-6.16-1.81-9.69,0-3.28.59-6.38,1.76-9.32,1.18-2.93,2.82-5.5,4.93-7.7,2.1-2.19,4.6-3.95,7.48-5.24,2.88-1.3,6.05-1.94,9.52-1.94,3.66,0,6.91.6,9.76,1.81,2.85,1.21,5.23,2.88,7.16,5.01,1.92,2.13,3.37,4.65,4.36,7.56.99,2.91,1.49,6.06,1.49,9.46v1.11c-.06.37-.1.72-.1,1.02-.06.31-.1.65-.1,1.02h-34.29c.25,1.86.76,3.45,1.53,4.77.77,1.33,1.73,2.44,2.88,3.33,1.14.9,2.4,1.54,3.76,1.94,1.36.4,2.75.6,4.18.6,2.79,0,5.09-.63,6.92-1.9,1.83-1.27,3.27-2.86,4.32-4.77l10.13,5.01.02.02ZM171.63,31.51c-.06-.8-.32-1.7-.79-2.69-.47-.99-1.14-1.91-2.05-2.78-.9-.87-2.01-1.58-3.35-2.13-1.34-.55-2.93-.84-4.78-.84-2.6,0-4.89.74-6.87,2.23-1.98,1.49-3.37,3.56-4.18,6.21h22.02Z"/>
      <path class="cls-3" d="M208.97,13.14c3.53,0,6.77.6,9.71,1.81,2.94,1.21,5.48,2.88,7.62,5.01,2.13,2.13,3.81,4.68,5.02,7.65,1.21,2.97,1.81,6.21,1.81,9.74s-.6,6.77-1.81,9.74c-1.21,2.97-2.88,5.52-5.02,7.65-2.13,2.13-4.68,3.8-7.62,5.01-2.95,1.21-6.18,1.81-9.71,1.81s-6.77-.6-9.71-1.81c-2.95-1.21-5.48-2.88-7.62-5.01-2.13-2.13-3.81-4.68-5.02-7.65-1.21-2.97-1.81-6.21-1.81-9.74s.6-6.77,1.81-9.74c1.21-2.97,2.88-5.52,5.02-7.65,2.13-2.13,4.68-3.8,7.62-5.01,2.94-1.21,6.17-1.81,9.71-1.81ZM208.97,50.33c1.55,0,3.05-.29,4.51-.88,1.46-.59,2.74-1.44,3.85-2.55,1.12-1.11,2-2.47,2.65-4.08.65-1.61.97-3.43.97-5.47s-.32-3.87-.97-5.47c-.65-1.61-1.53-2.97-2.65-4.08-1.12-1.11-2.4-1.96-3.85-2.55-1.46-.59-2.96-.88-4.51-.88s-3.13.3-4.56.88c-1.43.59-2.7,1.44-3.81,2.55-1.12,1.12-2,2.47-2.65,4.08-.65,1.61-.97,3.43-.97,5.47s.32,3.87.97,5.47c.65,1.61,1.53,2.97,2.65,4.08,1.12,1.12,2.38,1.96,3.81,2.55,1.43.59,2.94.88,4.56.88Z"/>
      <path class="cls-3" d="M235.83,14.63h11.43v5.47h.74c1.12-1.91,2.85-3.55,5.2-4.92,2.35-1.36,5.26-2.04,8.73-2.04,2.91,0,5.68.6,8.32,1.81,2.63,1.21,4.95,2.88,6.97,5.01,2.01,2.13,3.61,4.68,4.78,7.65,1.18,2.97,1.76,6.21,1.76,9.74s-.59,6.77-1.76,9.74-2.77,5.52-4.78,7.65c-2.01,2.13-4.34,3.8-6.97,5.01-2.63,1.21-5.4,1.81-8.32,1.81-3.47,0-6.38-.68-8.73-2.04-2.36-1.36-4.09-3-5.2-4.92h-.74l.74,6.49v12.58h-12.17V14.63ZM259.42,50.33c1.61,0,3.14-.31,4.6-.92,1.46-.62,2.74-1.49,3.86-2.6,1.12-1.12,2.01-2.47,2.7-4.08.68-1.61,1.02-3.4,1.02-5.38s-.34-3.77-1.02-5.38c-.69-1.61-1.58-2.97-2.7-4.08-1.12-1.12-2.4-1.98-3.86-2.6-1.46-.62-2.99-.92-4.6-.92s-3.15.3-4.6.88c-1.46.59-2.74,1.44-3.86,2.55-1.12,1.12-2.01,2.47-2.7,4.08-.68,1.61-1.02,3.43-1.02,5.47s.34,3.87,1.02,5.47c.68,1.61,1.58,2.97,2.7,4.08,1.11,1.11,2.4,1.96,3.86,2.55,1.46.59,2.99.88,4.6.88v-.02Z"/>
      <path class="cls-3" d="M286.37,60.07V.09h12.17v59.98h-12.17Z"/>
      <path class="cls-3" d="M347.32,49.13c-2.11,3.71-4.94,6.71-8.5,8.99-3.57,2.29-7.91,3.43-13.06,3.43-3.47,0-6.67-.6-9.62-1.81-2.95-1.21-5.5-2.89-7.66-5.05-2.17-2.16-3.85-4.72-5.06-7.65-1.21-2.93-1.81-6.16-1.81-9.69,0-3.28.59-6.38,1.76-9.32,1.18-2.93,2.82-5.5,4.93-7.7,2.1-2.19,4.6-3.95,7.48-5.24,2.88-1.3,6.05-1.94,9.52-1.94,3.66,0,6.91.6,9.76,1.81,2.85,1.21,5.23,2.88,7.16,5.01,1.92,2.13,3.37,4.65,4.36,7.56.99,2.91,1.49,6.06,1.49,9.46v1.11c-.06.37-.1.72-.1,1.02-.06.31-.1.65-.1,1.02h-34.29c.25,1.86.76,3.45,1.53,4.77.77,1.33,1.73,2.44,2.88,3.33,1.14.9,2.4,1.54,3.76,1.94s2.75.6,4.18.6c2.79,0,5.1-.63,6.92-1.9,1.83-1.27,3.27-2.86,4.32-4.77l10.13,5.01.02.02ZM336.26,31.51c-.06-.8-.32-1.7-.79-2.69-.47-.99-1.14-1.91-2.04-2.78-.9-.87-2.01-1.58-3.35-2.13-1.34-.55-2.93-.84-4.78-.84-2.6,0-4.89.74-6.87,2.23-1.98,1.49-3.37,3.56-4.18,6.21h22.02Z"/>
      <path class="cls-3" d="M351.59,14.63h5.57v7.88h.37c.74-1.24,1.64-2.43,2.7-3.57,1.05-1.14,2.29-2.15,3.72-3.01,1.42-.87,3.03-1.54,4.83-2.04,1.79-.49,3.78-.74,5.95-.74,2.91,0,5.67.6,8.27,1.81,2.6,1.21,4.88,2.88,6.83,5.01,1.95,2.13,3.5,4.68,4.64,7.65,1.14,2.97,1.72,6.21,1.72,9.74s-.57,6.77-1.72,9.74c-1.14,2.97-2.7,5.52-4.64,7.65-1.95,2.13-4.23,3.8-6.83,5.01-2.6,1.21-5.36,1.81-8.27,1.81-2.17,0-4.15-.27-5.95-.79-1.8-.52-3.41-1.22-4.83-2.09-1.43-.87-2.67-1.87-3.72-3.01-1.05-1.14-1.95-2.33-2.7-3.57h-.37l.37,6.31v15.28h-5.95V14.63h0ZM373.71,56.17c2.17,0,4.26-.43,6.27-1.3,2.01-.87,3.78-2.1,5.3-3.71,1.51-1.61,2.72-3.58,3.62-5.94.89-2.35,1.34-4.97,1.34-7.88s-.45-5.52-1.34-7.83c-.9-2.32-2.11-4.3-3.62-5.94-1.52-1.64-3.28-2.89-5.3-3.75-2.01-.87-4.11-1.3-6.27-1.3s-4.26.42-6.27,1.25c-2.01.84-3.78,2.06-5.3,3.66-1.52,1.61-2.73,3.58-3.62,5.94-.9,2.35-1.34,5.01-1.34,7.98s.45,5.61,1.34,7.93c.89,2.32,2.1,4.3,3.62,5.94,1.51,1.64,3.28,2.88,5.3,3.71,2.01.84,4.11,1.25,6.27,1.25h0Z"/>
      <path class="cls-3" d="M432.8,51.54h-.37c-.74,1.36-1.64,2.64-2.7,3.85s-2.28,2.27-3.67,3.2c-1.39.92-2.95,1.66-4.64,2.18-1.71.52-3.52.79-5.43.79-2.79,0-5.23-.45-7.34-1.34-2.11-.89-3.84-2.16-5.2-3.8-1.36-1.64-2.38-3.58-3.07-5.84-.68-2.26-1.02-4.74-1.02-7.47V14.63h5.95v27.45c0,4.82,1.07,8.38,3.2,10.66,2.13,2.29,5.16,3.43,9.06,3.43,2.17,0,4.16-.5,5.99-1.49,1.83-.99,3.39-2.29,4.69-3.9,1.3-1.61,2.33-3.48,3.07-5.61.74-2.13,1.12-4.34,1.12-6.63V14.62h5.95v45.44h-5.57v-8.53h0Z"/>
      <path class="cls-3" d="M445.15,60.07V.09h5.95v59.98h-5.95Z"/>
      <path class="cls-3" d="M473.31,61.56c-2.48,0-4.76-.35-6.83-1.07-2.08-.71-3.9-1.67-5.48-2.88-1.58-1.21-2.95-2.6-4.09-4.17-1.14-1.58-2.03-3.23-2.65-4.96l5.3-2.23c1.24,3.28,3.12,5.77,5.62,7.47,2.51,1.7,5.22,2.55,8.13,2.55,3.66,0,6.54-.8,8.64-2.41,2.1-1.61,3.16-3.53,3.16-5.75,0-.92-.15-1.79-.47-2.6s-.87-1.56-1.67-2.27c-.81-.71-1.89-1.36-3.25-1.94-1.36-.59-3.1-1.12-5.2-1.62l-6.32-1.49c-1.43-.37-2.9-.85-4.41-1.44-1.52-.59-2.9-1.36-4.14-2.32-1.24-.96-2.25-2.11-3.02-3.48-.77-1.36-1.16-2.93-1.16-4.73,0-2.1.48-3.95,1.44-5.56.96-1.61,2.26-2.97,3.9-4.08,1.64-1.11,3.52-1.96,5.62-2.55,2.1-.59,4.27-.88,6.5-.88,1.92,0,3.78.23,5.57.7,1.8.47,3.45,1.12,4.97,1.99,1.51.87,2.87,1.96,4.04,3.29,1.18,1.33,2.1,2.86,2.78,4.59l-5.2,2.13c-1.24-2.6-2.93-4.48-5.06-5.66-2.13-1.17-4.6-1.76-7.39-1.76-1.36,0-2.71.17-4.04.51-1.34.34-2.53.84-3.57,1.49-1.05.65-1.91,1.45-2.55,2.41-.65.96-.97,2.03-.97,3.2,0,1.92.82,3.4,2.46,4.45,1.64,1.05,3.95,1.94,6.92,2.69l6.69,1.67c4.65,1.17,8.07,2.86,10.26,5.05s3.3,4.77,3.3,7.75c0,1.92-.42,3.71-1.26,5.38-.84,1.67-2.04,3.14-3.62,4.4-1.58,1.27-3.47,2.27-5.67,3.01-2.2.74-4.63,1.12-7.29,1.12h0Z"/>
      <path class="cls-3" d="M535.09,49.31c-.8,1.67-1.83,3.25-3.07,4.73-1.24,1.49-2.68,2.78-4.32,3.9-1.64,1.11-3.52,1.99-5.62,2.64-2.11.65-4.43.97-6.97.97-3.28,0-6.32-.6-9.1-1.81-2.79-1.21-5.19-2.89-7.2-5.05-2.01-2.16-3.57-4.72-4.69-7.65-1.12-2.93-1.68-6.16-1.68-9.69,0-3.28.51-6.38,1.53-9.32,1.02-2.93,2.5-5.5,4.41-7.7,1.92-2.19,4.24-3.95,6.97-5.24,2.72-1.3,5.79-1.94,9.2-1.94s6.24.57,8.87,1.72c2.63,1.14,4.88,2.75,6.74,4.82,1.86,2.07,3.3,4.56,4.32,7.47,1.02,2.91,1.53,6.12,1.53,9.64v.55c-.06.18-.1.34-.1.47v.55h-37.44c.06,3.15.62,5.84,1.67,8.07s2.38,4.07,3.99,5.52c1.61,1.45,3.41,2.52,5.39,3.2,1.98.68,3.9,1.02,5.76,1.02,3.84,0,6.87-.88,9.1-2.64,2.23-1.76,4.09-4,5.57-6.73l5.11,2.51h0ZM529.79,33.36c-.06-1.49-.37-3.09-.93-4.82-.56-1.73-1.43-3.33-2.6-4.82-1.18-1.49-2.74-2.72-4.69-3.71-1.95-.99-4.36-1.49-7.2-1.49-1.86,0-3.66.32-5.39.97-1.74.65-3.3,1.59-4.69,2.83s-2.57,2.78-3.53,4.64c-.96,1.86-1.59,3.99-1.91,6.4h30.94Z"/>
      <path class="cls-1" d="M21.13,39.07v34.58H0v-26.1c0-4.69,3.8-8.49,8.48-8.49h12.65Z"/>
      <path class="cls-5" d="M34.58,17.29C34.58,7.74,26.84,0,17.29,0S0,7.74,0,17.29s7.74,17.29,17.29,17.29,17.29-7.74,17.29-17.29Z"/>
      <path class="cls-4" d="M59.56,39.07v34.58h-20.49v-26.09c0-4.69,3.68-8.49,8.23-8.49h12.27Z"/>
      <path class="cls-2" d="M73.65,17.29c0-9.55-7.74-17.29-17.29-17.29s-17.29,7.74-17.29,17.29,7.74,17.29,17.29,17.29,17.29-7.74,17.29-17.29Z"/>
    </g>
  </g>
</svg>